<svg xmlns="http://www.w3.org/2000/svg" xmlns:xlink="http://www.w3.org/1999/xlink" width="66" height="66" viewBox="0 0 66 66">
    <defs>
        <circle id="zp01ikv4za" cx="32.509" cy="32.509" r="32.509"/>
    </defs>
    <g fill="none" fill-rule="evenodd">
        <g>
            <g>
                <g transform="translate(-59 -40) translate(59 40)">
                    <mask id="k41ijy0l4b" fill="$color-white-primary">
                        <use xlink:href="#zp01ikv4za"/>
                    </mask>
                    <use fill="#F0F0F0" xlink:href="#zp01ikv4za"/>
                    <path fill="#000" fill-rule="nonzero" d="M31.48 18.287c3.664.025 6.891 2.218 7.984 5.424 1.093 3.205-.2 6.691-3.196 8.624 5.076 1.803 8.425 6.277 8.432 11.266v1.1h-2.426v-1.134c-.337-5.228-5.061-9.31-10.776-9.31-5.714 0-10.439 4.082-10.775 9.31v1.1h-2.436v-1.1c.004-4.99 3.354-9.466 8.433-11.266-2.96-1.94-4.23-5.4-3.148-8.584 1.082-3.184 4.27-5.373 7.907-5.43zm0 2.198c-3.312 0-5.997 2.46-5.997 5.496 0 3.035 2.685 5.495 5.996 5.495 3.312 0 5.997-2.46 5.997-5.495-.005-3.034-2.687-5.491-5.997-5.496z" mask="url(#k41ijy0l4b)" opacity=".2"/>
                </g>
            </g>
        </g>
    </g>
</svg>
