<svg xmlns="http://www.w3.org/2000/svg" width="258" height="69" viewBox="0 0 258 69">
    <g fill="none" fill-rule="evenodd">
        <g>
            <g>
                <path fill="#000" d="M91.532.967L86.643.967 86.643 0 97.464 0 97.464.967 92.573.967 92.573 14.084 91.532 14.084 91.532.967M100.223 0L101.264 0 101.264 6.519 110.242 6.519 110.242 0 111.282 0 111.282 14.084 110.242 14.084 110.242 7.486 101.264 7.486 101.264 14.084 100.223 14.084 100.223 0M115.044 0L125.022 0 125.022.967 116.086.967 116.086 6.5 124.12 6.5 124.12 7.465 116.086 7.465 116.086 13.119 125.123 13.119 125.123 14.084 115.044 14.084 115.044 0M96.535 30.132c2.346 0 3.717-1.408 3.717-3.244v-.06c0-2.113-1.463-3.245-3.809-3.245h-3.628v6.55h3.72zm-8.414-10.805h8.718c5.09 0 8.17 3.03 8.17 7.407v.062c0 4.957-3.84 7.53-8.627 7.53h-3.567v6.426h-4.694V19.327zM107.87 19.327L112.566 19.327 112.566 27.806 121.222 27.806 121.222 19.327 125.917 19.327 125.917 40.752 121.222 40.752 121.222 32.152 112.566 32.152 112.566 40.752 107.87 40.752 107.87 19.327M130.641 40.75L135.335 40.75 135.335 19.327 130.641 19.327zM140.058 19.327L144.752 19.327 144.752 36.468 155.392 36.468 155.392 40.752 140.058 40.752 140.058 19.327M158.312 19.327L163.008 19.327 163.008 36.468 173.646 36.468 173.646 40.752 158.312 40.752 158.312 19.327M176.784 40.75L181.478 40.75 181.478 19.327 176.784 19.327zM194.616 30.132c2.347 0 3.718-1.408 3.718-3.244v-.06c0-2.113-1.463-3.245-3.81-3.245h-3.629v6.55h3.72zm-8.414-10.805h8.718c5.091 0 8.169 3.03 8.169 7.407v.062c0 4.957-3.84 7.53-8.627 7.53h-3.567v6.426h-4.693V19.327zM204.49 37.63l2.774-3.336c1.919 1.591 3.932 2.602 6.37 2.602 1.922 0 3.08-.766 3.08-2.02v-.063c0-1.192-.732-1.804-4.298-2.722-4.299-1.102-7.073-2.296-7.073-6.55v-.06c0-3.888 3.108-6.458 7.468-6.458 3.109 0 5.761.979 7.926 2.722l-2.438 3.552c-1.89-1.317-3.752-2.112-5.55-2.112-1.797 0-2.742.825-2.742 1.865v.063c0 1.408.914 1.866 4.603 2.814 4.328 1.133 6.766 2.695 6.766 6.428v.062c0 4.254-3.23 6.641-7.834 6.641-3.23 0-6.49-1.133-9.053-3.427M88.121 45.995L93.181 45.995 98.789 55.055 104.399 45.995 109.459 45.995 109.459 67.42 104.796 67.42 104.796 53.432 98.789 62.583 98.667 62.583 92.725 53.525 92.725 67.42 88.121 67.42 88.121 45.995M126.22 58.453l-2.833-6.95-2.834 6.95h5.667zm-4.935-12.61h4.328l9.143 21.577h-4.908l-1.95-4.805h-9.022l-1.95 4.805h-4.787l9.146-21.577zM135.12 56.769v-.062c0-6.089 4.572-11.078 11.126-11.078 4.023 0 6.432 1.347 8.414 3.305l-2.989 3.458c-1.645-1.5-3.321-2.419-5.456-2.419-3.595 0-6.188 3-6.188 6.673v.061c0 3.674 2.53 6.735 6.188 6.735 2.438 0 3.932-.981 5.61-2.511l2.987 3.03c-2.195 2.357-4.635 3.826-8.749 3.826-6.278 0-10.943-4.866-10.943-11.018M157.947 45.995L162.642 45.995 162.642 54.474 171.298 54.474 171.298 45.995 175.994 45.995 175.994 67.42 171.298 67.42 171.298 58.82 162.642 58.82 162.642 67.42 157.947 67.42 157.947 45.995M180.717 67.418L185.411 67.418 185.411 45.995 180.717 45.995zM190.134 45.995L194.462 45.995 204.461 59.187 204.461 45.995 209.096 45.995 209.096 67.42 205.102 67.42 194.769 53.801 194.769 67.42 190.134 67.42 190.134 45.995M213.816 67.418L218.511 67.418 218.511 45.995 213.816 45.995zM221.772 64.299l2.774-3.337c1.92 1.591 3.931 2.602 6.371 2.602 1.92 0 3.078-.766 3.078-2.02v-.063c0-1.192-.732-1.804-4.297-2.722-4.298-1.102-7.073-2.296-7.073-6.55v-.06c0-3.888 3.109-6.458 7.468-6.458 3.11 0 5.762.979 7.927 2.722l-2.439 3.55c-1.89-1.315-3.751-2.11-5.549-2.11-1.797 0-2.743.825-2.743 1.865v.063c0 1.406.915 1.866 4.602 2.814 4.33 1.133 6.768 2.695 6.768 6.428v.061c0 4.255-3.23 6.642-7.834 6.642-3.23 0-6.491-1.133-9.053-3.427M246.643 50.34L240.15 50.34 240.15 45.995 257.829 45.995 257.829 50.34 251.337 50.34 251.337 67.42 246.643 67.42 246.643 50.34" transform="translate(-51.000000, -155.000000) translate(51.000000, 155.000000)"/>
                <g>
                    <g>
                        <path fill="#E05734" d="M4.98 33.388c0-17.616 13.595-32.047 30.823-33.29C34.96.033 34.107 0 33.247 0 14.887 0 0 14.946 0 33.383c0 18.432 14.888 33.373 33.247 33.373.813 0 1.62-.027 2.417-.086C18.502 65.358 4.98 50.958 4.98 33.388M42.843 0c-.8 0-1.592.031-2.377.086C57.78 1.243 71.469 15.71 71.469 33.388c0 17.63-13.614 32.067-30.866 33.292.742.053 1.488.076 2.24.076 18.36 0 33.247-14.941 33.247-33.373C76.09 14.946 61.204 0 42.843 0" transform="translate(-51.000000, -155.000000) translate(51.000000, 155.000000) translate(0.000000, 1.446246) translate(-0.000000, -0.000000)"/>
                        <path fill="#E05734" d="M32.275 19.29L39.614 19.29 34.077 45.927 26.742 45.927 32.275 19.29M25.108 19.29L29.446 19.29 23.91 45.927 19.559 45.927 25.108 19.29M20.374 19.29L22.835 19.29 17.335 45.927 14.874 45.927 20.374 19.29" transform="translate(-51.000000, -155.000000) translate(51.000000, 155.000000) translate(0.000000, 1.446246) translate(-0.000000, -0.000000)"/>
                        <path fill="#000" d="M49.108 31.524h3.121c3.273 0 4.349-1.231 4.349-3.02 0-2.051-1.82-2.387-3.532-2.387h-2.783l-1.155 5.407zM43.571 19.29h13.155c4.866 0 8.026 2.684 8.026 8.58 0 5.37-4.499 9.997-11.481 9.997h-5.502l-1.67 8.06h-8.063l5.535-26.637z" transform="translate(-51.000000, -155.000000) translate(51.000000, 155.000000) translate(0.000000, 1.446246) translate(-0.000000, -0.000000)"/>
                    </g>
                </g>
            </g>
        </g>
    </g>
</svg>
