<svg xmlns="http://www.w3.org/2000/svg" width="19" height="19" viewBox="0 0 19 19">
    <g fill="none" fill-rule="evenodd" opacity=".3">
        <g fill="#000" fill-rule="nonzero">
            <g>
                <path d="M30.869 27.285c1.06-1.39 1.7-3.134 1.7-5.01 0-4.568-3.71-8.275-8.284-8.275C19.712 14 16 17.707 16 22.275c0 4.568 3.712 8.276 8.285 8.276 1.878 0 3.623-.64 5.015-1.7l3.822 3.818c.221.22.508.331.773.331s.575-.11.774-.331c.441-.441.441-1.125 0-1.567l-3.8-3.817zm-6.584 1.059c-3.358 0-6.076-2.737-6.076-6.069s2.718-6.068 6.076-6.068c3.358 0 6.075 2.714 6.075 6.068 0 3.355-2.74 6.069-6.075 6.069z" transform="translate(-476 -116) translate(460 102)"/>
            </g>
        </g>
    </g>
</svg>
